<svg width="20" height="13" viewBox="0 0 20 13" fill="none" xmlns="http://www.w3.org/2000/svg">
<path d="M10 0C5.45455 0 1.57273 2.68336 0 6.47112C1.57273 10.2589 5.45455 12.9422 10 12.9422C14.5455 12.9422 18.4273 10.2589 20 6.47112C18.4273 2.68336 14.5455 0 10 0ZM10 10.7852C7.49091 10.7852 5.45455 8.85249 5.45455 6.47112C5.45455 4.08975 7.49091 2.15704 10 2.15704C12.5091 2.15704 14.5455 4.08975 14.5455 6.47112C14.5455 8.85249 12.5091 10.7852 10 10.7852ZM10 3.88267C8.49091 3.88267 7.27273 5.03884 7.27273 6.47112C7.27273 7.90339 8.49091 9.05956 10 9.05956C11.5091 9.05956 12.7273 7.90339 12.7273 6.47112C12.7273 5.03884 11.5091 3.88267 10 3.88267Z" fill="#C4C4C4"/>
</svg>
