<svg width="29" height="29" viewBox="0 0 29 29" fill="none" xmlns="http://www.w3.org/2000/svg">
<path d="M26.5812 14.4301C26.5812 13.5552 26.5119 12.6755 26.364 11.8148H14.4988V16.7711H21.2934C21.0115 18.3696 20.1055 19.7836 18.779 20.6822V23.8981H22.8326C25.213 21.6564 26.5812 18.3459 26.5812 14.4301Z" fill="#4285F4"/>
<path d="M14.5496 26.5833C17.8063 26.5833 20.5527 25.5538 22.5538 23.7767L18.6626 20.8718C17.58 21.5809 16.1823 21.9825 14.554 21.9825C11.4038 21.9825 8.73276 19.9362 7.77438 17.1851H3.75898V20.1797C5.80883 24.1056 9.98397 26.5833 14.5496 26.5833Z" fill="#34A853"/>
<path d="M7.78642 16.7896C7.2735 15.3042 7.2735 13.6958 7.78642 12.2103V9.12962H3.71904C1.9823 12.5092 1.9823 16.4908 3.71904 19.8704L7.78642 16.7896Z" fill="#FBBC04"/>
<path d="M14.5064 7.01577C16.2211 6.99015 17.8783 7.61352 19.12 8.75777L22.5538 5.44029C20.3795 3.46774 17.4938 2.38327 14.5064 2.41742C9.95909 2.41742 5.80064 4.89379 3.75898 8.82181L7.75392 11.8148C8.70404 9.06091 11.3688 7.01577 14.5064 7.01577Z" fill="#EA4335"/>
</svg>
