<svg width="428" height="47" viewBox="0 0 428 47" fill="none" xmlns="http://www.w3.org/2000/svg">
<g clip-path="url(#clip0_1_67)">
<rect width="428" height="47" fill="white" fill-opacity="0.8"/>
<rect width="128" height="47" fill="white" fill-opacity="0.8"/>
<g clip-path="url(#clip1_1_67)">
<path d="M47.7885 29.5V20.2109H47.6556L44.851 22.1953V20.2969L47.7963 18.2266H49.8041V29.5H47.7885ZM55.3747 29.5V20.2109H55.2419L52.4372 22.1953V20.2969L55.3825 18.2266H57.3903V29.5H55.3747ZM61.6562 22.1953C60.9453 22.1953 60.4141 21.6484 60.4141 20.9609C60.4141 20.2656 60.9453 19.7266 61.6562 19.7266C62.375 19.7266 62.8984 20.2656 62.8984 20.9609C62.8984 21.6484 62.375 22.1953 61.6562 22.1953ZM61.6562 27.9922C60.9453 27.9922 60.4141 27.4531 60.4141 26.7578C60.4141 26.0625 60.9453 25.5234 61.6562 25.5234C62.375 25.5234 62.8984 26.0625 62.8984 26.7578C62.8984 27.4531 62.375 27.9922 61.6562 27.9922ZM69.1644 29.7266C66.6956 29.7266 65.0784 28.3828 64.93 26.4531L64.9222 26.3594H66.8441L66.8519 26.4453C66.9613 27.3984 67.8441 28.0781 69.1644 28.0781C70.4691 28.0781 71.3363 27.3516 71.3363 26.3047V26.2891C71.3363 25.1016 70.4613 24.4453 69.0159 24.4453H67.6878V22.9453H68.9769C70.2191 22.9453 71.0472 22.2422 71.0472 21.2578V21.2422C71.0472 20.2109 70.3519 19.6016 69.1488 19.6016C67.9613 19.6016 67.1409 20.2344 67.0394 21.2422L67.0316 21.3203H65.1566L65.1644 21.2344C65.3363 19.2813 66.8753 18 69.1488 18C71.4691 18 72.9769 19.2109 72.9769 20.9766V20.9922C72.9769 22.3906 71.9691 23.3203 70.6175 23.6016V23.6406C72.2738 23.7969 73.3753 24.7812 73.3753 26.3438V26.3594C73.3753 28.3438 71.6644 29.7266 69.1644 29.7266ZM79.3209 29.7812C76.6413 29.7812 75.0319 27.5078 75.0319 23.8672V23.8516C75.0319 20.2109 76.6413 17.9453 79.3209 17.9453C82.0006 17.9453 83.6256 20.2109 83.6256 23.8516V23.8672C83.6256 27.5078 82.0006 29.7812 79.3209 29.7812ZM79.3209 28.1484C80.7584 28.1484 81.5944 26.5391 81.5944 23.8672V23.8516C81.5944 21.1797 80.7584 19.5859 79.3209 19.5859C77.8834 19.5859 77.0631 21.1797 77.0631 23.8516V23.8672C77.0631 26.5391 77.8834 28.1484 79.3209 28.1484Z" fill="black"/>
</g>
<rect width="172" height="47" transform="translate(128)" fill="white" fill-opacity="0.8"/>
<g clip-path="url(#clip2_1_67)">
<path d="M128 0H300C296.686 0 294 2.68629 294 6V6.71329C294 9.20832 294 10.4558 293.902 11.5071C292.889 22.3234 284.323 30.8887 273.507 31.9016C272.456 32 271.208 32 268.713 32H159.287C156.792 32 155.544 32 154.493 31.9016C143.677 30.8887 135.111 22.3234 134.098 11.5071C134 10.4558 134 9.20832 134 6.71329V6C134 2.68629 131.314 0 128 0Z" fill="black"/>
</g>
<rect width="128" height="47" transform="translate(300)" fill="white" fill-opacity="0.8"/>
<g clip-path="url(#clip3_1_67)">
<path d="M334 20.5C334 19.9477 334.448 19.5 335 19.5H336C336.552 19.5 337 19.9477 337 20.5V28.5C337 29.0523 336.552 29.5 336 29.5H335C334.448 29.5 334 29.0523 334 28.5V20.5Z" fill="black"/>
<path d="M339 18.5C339 17.9477 339.448 17.5 340 17.5H341C341.552 17.5 342 17.9477 342 18.5V28.5C342 29.0523 341.552 29.5 341 29.5H340C339.448 29.5 339 29.0523 339 28.5V18.5Z" fill="black"/>
<path d="M329 24C329 23.4477 329.448 23 330 23H331C331.552 23 332 23.4477 332 24V28.5C332 29.0523 331.552 29.5 331 29.5H330C329.448 29.5 329 29.0523 329 28.5V24Z" fill="black"/>
<path d="M324 26.5C324 25.9477 324.448 25.5 325 25.5H326C326.552 25.5 327 25.9477 327 26.5V28.5C327 29.0523 326.552 29.5 326 29.5H325C324.448 29.5 324 29.0523 324 28.5V26.5Z" fill="black"/>
</g>
<g clip-path="url(#clip4_1_67)">
<path fill-rule="evenodd" clip-rule="evenodd" d="M358.55 20.0875C361.016 20.0876 363.389 21.0551 365.176 22.7898C365.311 22.9238 365.526 22.9221 365.659 22.786L366.945 21.4605C367.013 21.3915 367.05 21.298 367.049 21.2008C367.049 21.1035 367.01 21.0105 366.942 20.9423C362.25 16.3526 354.848 16.3526 350.157 20.9423C350.089 21.0105 350.05 21.1035 350.049 21.2007C350.049 21.2979 350.086 21.3914 350.153 21.4605L351.44 22.786C351.573 22.9223 351.788 22.924 351.923 22.7898C353.711 21.0549 356.083 20.0875 358.55 20.0875ZM358.585 24.0894C359.941 24.0893 361.247 24.6035 362.252 25.532C362.388 25.6638 362.602 25.6609 362.734 25.5256L364.019 24.2C364.087 24.1304 364.125 24.0361 364.124 23.9381C364.123 23.8401 364.083 23.7466 364.014 23.6784C360.955 20.7739 356.218 20.7739 353.159 23.6784C353.09 23.7466 353.05 23.8401 353.049 23.9382C353.048 24.0362 353.086 24.1305 353.154 24.2L354.439 25.5256C354.571 25.6609 354.785 25.6638 354.921 25.532C355.925 24.6041 357.231 24.09 358.585 24.0894ZM361.199 26.6767C361.201 26.775 361.163 26.8698 361.094 26.9386L358.871 29.2289C358.806 29.2962 358.717 29.334 358.624 29.334C358.532 29.334 358.443 29.2962 358.378 29.2289L356.154 26.9386C356.085 26.8697 356.047 26.7749 356.049 26.6766C356.051 26.5783 356.093 26.4853 356.165 26.4194C357.585 25.1935 359.664 25.1935 361.084 26.4194C361.155 26.4853 361.197 26.5784 361.199 26.6767Z" fill="black"/>
</g>
<g clip-path="url(#clip5_1_67)">
<path opacity="0.35" d="M380.049 17.5H397.049C398.982 17.5 400.549 19.067 400.549 21V26C400.549 27.933 398.982 29.5 397.049 29.5H380.049C378.116 29.5 376.549 27.933 376.549 26V21C376.549 19.067 378.116 17.5 380.049 17.5Z" stroke="black"/>
<path opacity="0.4" d="M402.049 22V26.2203C402.898 25.8629 403.451 25.0314 403.451 24.1102C403.451 23.1889 402.898 22.3574 402.049 22Z" fill="black"/>
<path d="M378.049 21C378.049 19.8954 378.945 19 380.049 19H397.049C398.154 19 399.049 19.8954 399.049 21V26C399.049 27.1046 398.154 28 397.049 28H380.049C378.945 28 378.049 27.1046 378.049 26V21Z" fill="black"/>
</g>
</g>
<defs>
<clipPath id="clip0_1_67">
<rect width="428" height="47" fill="white"/>
</clipPath>
<clipPath id="clip1_1_67">
<rect width="40" height="13" fill="white" transform="translate(44 17)"/>
</clipPath>
<clipPath id="clip2_1_67">
<rect width="172" height="32" fill="white" transform="translate(128)"/>
</clipPath>
<clipPath id="clip3_1_67">
<rect width="18" height="12" fill="white" transform="translate(324 17.5)"/>
</clipPath>
<clipPath id="clip4_1_67">
<rect width="18" height="12" fill="white" transform="translate(350 17.5)"/>
</clipPath>
<clipPath id="clip5_1_67">
<rect width="28" height="13" fill="white" transform="translate(376 17)"/>
</clipPath>
</defs>
</svg>
